# AST/ASF file generated using VICON BodyLanguage
# -----------------------------------------------
:version 1.10
:name VICON
:units
  mass 1.0
  length 0.45
  angle deg
:documentation
   .ast/.asf automatically generated from VICON data using
   VICON BodyBuilder and BodyLanguage model FoxedUp or BRILLIANT.MOD
:root
   order TX TY TZ RX RY RZ
   axis XYZ
   position 0 0 0  
   orientation 0 0 0 
:bonedata
  begin
     id 1 
     name lhipjoint
     direction 0.710087 -0.641647 0.289942 
     length 2.79038 
     axis 0 0 0  XYZ
  end
  begin
     id 2 
     name lfemur
     direction 0.34202 -0.939693 0  
     length 7.2706  
     axis 0 0 20  XYZ
    dof rx ry rz
    limits (-160.0 20.0)
           (-70.0 70.0)
           (-60.0 70.0)
  end
  begin
     id 3 
     name ltibia
     direction 0.34202 -0.939693 0   
     length 7.86328   
     axis 0 0 20   XYZ
    dof rx
    limits (-10.0 170.0)
  end
  begin
     id 4 
     name lfoot
     direction 0.0541246 -0.148706 0.987399   
     length 2.37542   
     axis -90 7.62852e-016 20   XYZ
    dof rx rz
    limits (-45.0 90.0)
           (-70.0 20.0)
  end
  begin
     id 5 
     name ltoes
     direction 1.53554e-011 -4.21866e-011 1   
     length 1.19593   
     axis -90 7.62852e-016 20   XYZ
    dof rx
    limits (-90.0 20.0)
  end
  begin
     id 6 
     name rhipjoint
     direction -0.675762 -0.671724 0.303533   
     length 2.66544  
     axis 0 0 0  XYZ 
  end
  begin
     id 7 
     name rfemur
     direction -0.34202 -0.939693 0   
     length 8.11844   
     axis 0 0 -20   XYZ
    dof rx ry rz
    limits (-160.0 20.0)
           (-70.0 70.0)
           (-70.0 60.0)
  end
  begin
     id 8 
     name rtibia
     direction -0.34202 -0.939693 0   
     length 7.97082   
     axis 0 0 -20   XYZ
    dof rx
    limits (-10.0 170.0)
 end
 begin
     id 9 
     name rfoot
     direction -0.0726228 -0.199474 0.977208   
     length 2.19677  
     axis -90 -7.62852e-016 -20   XYZ
    dof rx rz
    limits (-45.0 90.0)
           (-20.0 70.0)
  end
  begin
     id 10 
     name rtoes
     direction -1.53508e-011 -4.21913e-011 1   
     length 1.10438   
     axis -90 -7.62852e-016 -20   XYZ
    dof rx
    limits (-90.0 20.0)
  end
  begin
     id 11 
     name lowerback
     direction -0.00404436 0.999673 -0.0252643   
     length 2.03972   
     axis 0 0 0   XYZ
    dof rx ry rz
    limits (-20.0 45.0)
           (-30.0 30.0)
           (-30.0 30.0)
  end
  begin
     id 12 
     name upperback
     direction 0.00744643 0.999969 0.00242763   
     length 2.04273   
     axis 0 0 0   XYZ
    dof rx ry rz
    limits (-20.0 45.0)
           (-30.0 30.0)
           (-30.0 30.0)
  end
  begin
     id 13 
     name thorax
     direction 0.00846113 0.999862 0.0143204   
     length 2.03752   
     axis 0 0 0   XYZ
    dof rx ry rz
    limits (-20.0 45.0)
           (-30.0 30.0)
           (-30.0 30.0)
  end
  begin
     id 14 
     name lowerneck
     direction 0.0328213 0.990857 0.130862   
     length 1.37497   
     axis 0 0 0   XYZ
    dof rx ry rz
    limits (-20.0 45.0)
           (-30.0 30.0)
           (-30.0 30.0)
  end
  begin
     id 15 
     name upperneck
     direction -0.0302832 0.999496 0.00956452   
     length 1.35926   
     axis 0 0 0   XYZ
    dof rx ry rz
    limits (-20.0 45.0)
           (-30.0 30.0)
           (-30.0 30.0)
  end
  begin
     id 16
     name head
     direction -0.0130455 0.999856 -0.0108809  
     length 1.44454  
     axis 0 0 0   XYZ
    dof rx ry rz
    limits (-20.0 45.0)
           (-30.0 30.0)
           (-30.0 30.0)
  end
  begin
     id 17 
     name lclavicle
     direction 0.952957 0.278766 0.119006  
     length 3.10112  
     axis 0 0 0   XYZ
    dof ry rz
    limits (-20.0 10.0)
           (0.0 20.0)
  end
  begin
     id 18 
     name lhumerus
     direction 1 -4.48972e-011 -1.63238e-028   
     length 5.82845   
     axis -180 -30 -90   XYZ
    dof rx ry rz
    limits (-60.0 90.0)
           (-90.0 90.0)
           (-90.0 90.0)
  end
  begin
     id 19
     name lradius
     direction 1 -4.48959e-011 1.45401e-026   
     length 3.49691   
     axis -180 -30 -90   XYZ
    dof rx
    limits (-10.0 170.0)
  end
  begin
     id 20
     name lwrist
     direction 1 -4.48945e-011 2.98015e-026   
     length 1.74845   
     axis -1.7599e-014 90 90   XYZ
    dof ry
    limits (-180.0 0.0)
 end
  begin
     id 21 
     name lhand
     direction 1 -4.4902e-011 5.9603e-026   
     length 0.674998   
     axis -3.80318e-014 90 90   XYZ
    dof rx rz
    limits (-90.0 90.0)
           (-45.0 45.0)
  end
  begin
     id 22 
     name lfingers
     direction 1 -4.48979e-011 1.19206e-025   
     length 0.544201   
     axis -7.60636e-014 90 90   XYZ
    dof rx
    limits (0.0 90.0)
  end
  begin
     id 23
     name lthumb
     direction 0.707107 -6.34941e-011 0.707107   
     length 0.781367   
     axis -90 45 2.85299e-015   XYZ
    dof rx rz
    limits (-45.0 45.0)
           (-45.0 45.0)
  end
  begin
     id 24 
     name rclavicle
     direction -0.967632 0.241887 0.0719654   
     length 3.53012  
     axis 0 0 0   XYZ 
    dof ry rz
    limits (-10.0 20.0)
           (-20.0 0.0)
  end
  begin
     id 25 
     name rhumerus
     direction -1 -4.4897e-011 6.87619e-028  
     length 5.45859   
     axis -180 30 90   XYZ
    dof rx ry rz
    limits (-90.0 60.0)
           (-90.0 90.0)
           (-90.0 90.0)
  end
  begin
     id 26 
     name rradius
     direction -1 -4.48967e-011 1.68055e-026   
     length 3.58491   
     axis -180 30 90   XYZ
    dof rx
    limits (-10.0 170.0)
  end
  begin
     id 27 
     name rwrist
     direction -1 -4.48976e-011 2.98015e-026   
     length 1.79245   
     axis -1.7599e-014 -90 -90   XYZ
    dof ry
    limits (-180.0 0.0)
  end
  begin
     id 28
     name rhand
     direction -1 -4.48996e-011 5.9603e-026   
     length 0.683735   
     axis -3.80318e-014 -90 -90   XYZ
    dof rx rz
    limits (-90.0 90.0)
           (-45.0 45.0)
  end
  begin
     id 29
     name rfingers
     direction -1 -4.48924e-011 1.19206e-025   
     length 0.551245   
     axis -7.60636e-014 -90 -90   XYZ
    dof rx
    limits (0.0 90.0)
  end
  begin
     id 30
     name rthumb
     direction -0.707107 -6.3492e-011 0.707107   
     length 0.791481   
     axis -90 -45 -2.85299e-015   XYZ
    dof rx rz
    limits (-45.0 45.0)
           (-45.0 45.0)
  end
:hierarchy
  begin
    root lhipjoint rhipjoint lowerback
    lhipjoint lfemur
    lfemur ltibia
    ltibia lfoot
    lfoot ltoes
    rhipjoint rfemur
    rfemur rtibia
    rtibia rfoot
    rfoot rtoes
    lowerback upperback
    upperback thorax
    thorax lowerneck lclavicle rclavicle
    lowerneck upperneck
    upperneck head
    lclavicle lhumerus
    lhumerus lradius
    lradius lwrist
    lwrist lhand lthumb
    lhand lfingers
    rclavicle rhumerus
    rhumerus rradius
    rradius rwrist
    rwrist rhand rthumb
    rhand rfingers
  end

#!OML:ASF F:\VICON\USERDATA\INSTALL\rory3\rory3.ASF
:FULLY-SPECIFIED
:DEGREES
804
root 13.1801 16.2103 -31.587 -37.6696 -103.228 25.8206
lowerback 10.9897 1.3787 2.80441
upperback -1.87414 2.31929 1.25072
thorax -8.11299 1.02236 -0.664458
lowerneck -0.96552 4.44877 10.1095
upperneck -25.1183 3.94687 -8.43155
head -7.05894 1.2557 -4.67007
rclavicle 1.88845e-015 2.0276e-014
rhumerus 30.5792 -0.903618 -55.5436
rradius 101.014
rwrist -8.21304
rhand -30.1808 65.5288
rfingers 7.12502
rthumb -3.4921 35.5777
lclavicle 1.88845e-015 2.0276e-014
lhumerus 38.6345 -3.39547 47.8668
lradius 111.845
lwrist 30.5277
lhand 188.861 73.3064
lfingers 7.12502
lthumb -145.955 -673.467
rfemur -7.96892 -0.296692 9.32434
rtibia 57.4054
rfoot -29.712 -0.350227
rtoes -41.7242
lfemur -2.01618 -9.36968 1.78313
ltibia 46.8092
lfoot -24.846 4.53845
ltoes -23.7038
805
root 13.1956 16.2661 -31.7367 -35.121 -102.233 23.1565
lowerback 10.7112 1.26747 2.36837
upperback -1.96854 2.08777 0.999426
thorax -8.06544 0.926261 -0.639153
lowerneck -1.17962 4.59332 10.2347
upperneck -25.1908 4.09384 -8.53023
head -7.024 1.31234 -4.72581
rclavicle 1.51076e-014 6.75868e-015
rhumerus 35.8055 -2.41689 -55.7823
rradius 98.2173
rwrist -10.5227
rhand -31.5127 65.4738
rfingers 7.12502
rthumb -4.77823 35.5477
lclavicle 1.51076e-014 6.75868e-015
lhumerus 42.2244 -1.85586 47.7198
lradius 110.536
lwrist 31.2921
lhand 188.82 73.377
lfingers 7.12502
lthumb -145.994 -673.405
rfemur -7.60173 -0.0967611 8.97038
rtibia 57.3294
rfoot -30.2585 -0.677027
rtoes -40.6172
lfemur -1.08342 -8.79147 1.57425
ltibia 43.8479
lfoot -22.4842 5.14274
ltoes -30.7555
806
root 13.2192 16.3465 -31.9022 -33.9631 -101.211 21.743
lowerback 10.8958 1.10956 1.98786
upperback -2.23748 1.82795 0.861857
thorax -8.47561 0.8089 -0.533421
lowerneck -1.43643 4.69242 10.4493
upperneck -24.9282 4.19077 -8.7374
head -6.86993 1.36119 -4.81786
rclavicle -3.57812e-015 -9.14409e-015
rhumerus 40.8357 -3.49715 -56.3896
rradius 94.9915
rwrist -13.2572
rhand -33.0581 65.532
rfingers 7.12502
rthumb -6.27027 35.6448
lclavicle -3.57812e-015 -9.14409e-015
lhumerus 45.7652 -0.528027 48.1139
lradius 108.569
lwrist 31.1529
lhand 188.878 73.4071
lfingers 7.12502
lthumb -145.939 -673.363
rfemur -6.77118 0.403351 9.19703
rtibia 56.8202
rfoot -30.8048 -1.56881
rtoes -39.3597
lfemur 0.41034 -8.7916 1.52772
ltibia 40.4326
lfoot -21.0042 3.44918
ltoes -27.3655
807
root 13.236 16.4595 -32.0836 -31.9879 -100.042 19.5342
lowerback 10.9376 1.01864 1.32158
upperback -2.52743 1.60306 0.641656
thorax -8.82964 0.724114 -0.356048
lowerneck -1.4851 4.64623 10.3281
upperneck -24.7094 4.15948 -8.63844
head -6.80018 1.36054 -4.75464
rclavicle -7.55382e-015 0
rhumerus 45.6471 -4.3185 -57.3795
rradius 91.505
rwrist -16.7546
rhand -32.9423 64.9837
rfingers 7.12502
rthumb -6.15854 35.0932
lclavicle -7.55382e-015 0
lhumerus 49.6118 0.597449 48.8014
lradius 106.047
lwrist 30.8149
lhand 189.116 73.2913
lfingers 7.12502
lthumb -145.713 -673.428
rfemur -5.75496 1.01331 9.38122
rtibia 55.9897
rfoot -31.2727 -2.54628
rtoes -38.1867
lfemur 2.43625 -9.70221 0.975285
ltibia 36.4788
lfoot -19.5612 1.68778
ltoes -19.133
808
root 13.2506 16.5888 -32.2772 -32.2495 -98.916 19.6528
lowerback 10.9935 0.922954 1.07915
upperback -2.89945 1.42819 0.426641
thorax -9.2699 0.641312 -0.421226
lowerneck -1.68194 4.56926 10.3484
upperneck -24.3069 4.08643 -8.57578
head -6.64516 1.33564 -4.71633
rclavicle 4.57205e-015 9.14409e-015
rhumerus 49.8785 -5.03408 -58.621
rradius 87.8776
rwrist -20.4006
rhand -31.9959 63.8958
rfingers 7.12502
rthumb -5.24481 33.9807
lclavicle 4.57205e-015 9.14409e-015
lhumerus 53.4198 1.17235 49.6494
lradius 103.16
lwrist 31.2696
lhand 188.996 72.8365
lfingers 7.12502
lthumb -145.827 -673.909
rfemur -4.52433 0.848989 9.78237
rtibia 54.6393
rfoot -31.2109 -2.12353
rtoes -34.4659
lfemur 4.41635 -10.5573 0.854526
ltibia 32.1198
lfoot -17.4357 1.15636
ltoes -12.6903
809
root 13.2563 16.7272 -32.4791 -32.7399 -97.5574 19.9783
lowerback 10.7865 0.763374 0.768105
upperback -3.27995 1.14082 0.11368
thorax -9.56801 0.506453 -0.526328
lowerneck -1.49035 4.53497 10.7818
upperneck -23.9041 4.10593 -8.76923
head -6.52916 1.35283 -4.84668
rclavicle -2.8128e-014 1.86858e-014
rhumerus 53.5165 -5.34765 -60.1344
rradius 84.3788
rwrist -22.946
rhand -25.3388 63.7341
rfingers 7.12502
rthumb 1.18431 33.7576
lclavicle -2.8128e-014 1.86858e-014
lhumerus 56.85 1.52246 50.7401
lradius 100.084
lwrist 32.9241
lhand 188.495 72.3717
lfingers 7.12502
lthumb -146.303 -674.479
rfemur -2.92416 0.637135 10.1549
rtibia 52.8248
rfoot -31.3782 -1.62066
rtoes -28.9626
lfemur 6.40091 -12.6139 -0.113338
ltibia 27.8304
lfoot -15.0353 6.10709
ltoes -25.3997
810
root 13.2553 16.9179 -32.6803 -32.8601 -96.0499 20.0304
lowerback 10.4809 0.584467 0.564687
upperback -3.6975 0.820144 -0.38744
thorax -9.84655 0.341456 -0.886963
lowerneck -1.86103 4.35099 10.0353
upperneck -23.0493 4.05338 -7.72449
head -6.25515 1.34612 -4.33914
rclavicle 1.35174e-014 1.07344e-014
rhumerus 56.6499 -5.49276 -62.0029
rradius 80.8915
rwrist -23.488
rhand -31.0409 60.6145
rfingers 7.12502
rthumb -4.32264 30.6786
lclavicle 1.35174e-014 1.07344e-014
lhumerus 59.8766 1.70288 51.8176
lradius 96.9158
lwrist 35.175
lhand 188.492 72.1081
lfingers 7.12502
lthumb -146.305 -674.743
rfemur -1.16133 0.470081 10.4922
rtibia 50.5479
rfoot -31.4826 -1.41442
rtoes -22.7816
lfemur 7.68314 -13.9934 -1.27197
ltibia 24.4533
lfoot -13.2024 8.58661
ltoes -12.3445
811
root 13.2489 17.1356 -32.8815 -36.1265 -94.406 23.1721
lowerback 10.2616 0.424607 0.408587
upperback -4.0997 0.517161 -0.980761
thorax -10.1631 0.175789 -1.37967
lowerneck -1.8903 4.22559 11.1149
upperneck -22.1025 3.99721 -7.89678
head -5.92844 1.29421 -4.54726
rclavicle -1.19271e-015 -2.38542e-015
rhumerus 59.0884 -5.78411 -64.0121
rradius 77.6967
rwrist -22.2641
rhand -29.972 60.3204
rfingers 7.12502
rthumb -3.29046 30.366
lclavicle -1.19271e-015 -2.38542e-015
lhumerus 62.6644 1.26931 52.9506
lradius 93.7499
lwrist 37.4341
lhand 188.641 72.6486
lfingers 7.12502
lthumb -146.163 -674.171
rfemur 0.856217 0.0594663 11.0234
rtibia 48.0066
rfoot -31.2674 -2.02604
rtoes -19.0227
lfemur 7.97774 -14.1894 -2.04783
ltibia 22.6242
lfoot -11.1435 12.828
ltoes -7.77662
812
root 13.2425 17.3444 -33.076 -47.1945 -92.9751 34.4043
lowerback 9.6988 0.255529 0.153898
upperback -4.55811 0.210391 -1.28533
thorax -10.3454 0.0249979 -1.50432
lowerneck -1.82104 3.87905 10.6954
upperneck -21.5695 3.67802 -7.29749
head -5.83335 1.16316 -4.26107
rclavicle -8.15017e-015 -1.59028e-015
rhumerus 60.8767 -5.55608 -65.9587
rradius 75.1563
rwrist -20.0163
rhand -29.6572 60.1201
rfingers 7.12502
rthumb -2.98645 30.1613
lclavicle -8.15017e-015 -1.59028e-015
lhumerus 64.6066 -0.0891329 55.4048
lradius 90.4506
lwrist 38.9645
lhand 190.846 71.3106
lfingers 7.12502
lthumb -144.071 -675.023
rfemur 2.44176 -0.402721 11.8851
rtibia 45.5248
rfoot -30.73 -2.80256
rtoes -15.9396
lfemur 7.25662 -15.1355 -2.79934
ltibia 22.3803
lfoot -13.4752 16.9612
ltoes 7.40387
813
root 13.2595 17.5639 -33.265 -75.6151 -92.1486 63.1333
lowerback 9.28403 0.0983346 0.0795309
upperback -5.14369 -0.0359748 -1.34706
thorax -10.757 -0.10157 -1.4856
lowerneck -2.14162 3.66657 10.5345
upperneck -20.4935 3.50442 -6.87667
head -5.4754 1.107 -4.05897
rclavicle -4.37326e-015 6.36111e-015
rhumerus 62.0687 -4.81626 -68.0792
rradius 73.2806
rwrist -17.7334
rhand -29.2401 59.9924
rfingers 7.12502
rthumb -2.58356 30.0283
lclavicle -4.37326e-015 6.36111e-015
lhumerus 65.8423 -1.44095 58.2216
lradius 87.4081
lwrist 40.2846
lhand 190.696 71.5268
lfingers 7.12502
lthumb -144.214 -674.842
rfemur 3.49885 -0.887389 13.0632
rtibia 43.3732
rfoot -29.7679 -3.80242
rtoes -12.8092
lfemur 5.93113 -13.587 -2.88597
ltibia 23.7042
lfoot -13.5604 18.4864
ltoes -0.487912
814
root 13.297 17.7691 -33.4348 -112.705 -92.0817 100.708
lowerback 8.78315 0.119259 0.178336
upperback -5.71461 -0.0186402 -1.38654
thorax -11.0958 -0.113864 -1.58844
lowerneck -1.99662 3.39661 10.48
upperneck -20.0457 3.16126 -7.13708
head -5.38253 0.989416 -4.11708
rclavicle -7.95139e-015 2.46493e-014
rhumerus 62.4336 -4.27105 -69.6036
rradius 72.9644
rwrist -17.368
rhand -28.6387 58.5571
rfingers 7.12502
rthumb -2.00279 28.5867
lclavicle -7.95139e-015 2.46493e-014
lhumerus 66.48 -2.87564 61.2708
lradius 85.1877
lwrist 41.577
lhand 190.483 70.9355
lfingers 7.12502
lthumb -144.416 -675.482
rfemur 3.88926 -1.53548 13.774
rtibia 41.8522
rfoot -28.447 -2.20073
rtoes -0.298054
lfemur 4.12562 -10.6233 -3.0705
ltibia 26.1709
lfoot -10.0771 16.9652
ltoes -6.87664
815
root 13.3617 17.9638 -33.5957 -132.976 -92.8328 121.22
lowerback 8.6593 0.177214 0.86933
upperback -6.08795 0.115043 -1.61965
thorax -11.4392 -0.12522 -2.25803
lowerneck -1.88766 3.16445 11.1466
upperneck -19.8241 2.81354 -7.76516
head -5.33616 0.830169 -4.41935
rclavicle 8.34896e-015 -3.02153e-014
rhumerus 61.8439 -4.00678 -71.4698
rradius 74.4401
rwrist -18.6315
rhand -27.2104 55.1336
rfingers 7.12502
rthumb -0.623323 25.1547
lclavicle 8.34896e-015 -3.02153e-014
lhumerus 66.8354 -4.16656 63.4317
lradius 83.716
lwrist 42.3407
lhand 192.111 69.5633
lfingers 7.12502
lthumb -142.875 -676.469
rfemur 4.00848 -2.46759 14.3095
rtibia 40.9381
rfoot -25.7965 -0.348321
rtoes 11.2377
lfemur 2.50728 -6.93892 -3.10122
ltibia 29.4586
lfoot -6.10256 14.9602
ltoes -16.3856
816
root 13.4432 18.1508 -33.7568 -138.313 -93.4875 126.699
lowerback 8.64023 0.254619 1.47303
upperback -6.37982 0.280067 -1.73531
thorax -11.7512 -0.111472 -2.75922
lowerneck -1.60004 2.76085 11.2316
upperneck -19.6283 2.36293 -7.58549
head -5.37324 0.614202 -4.36455
rclavicle 7.55382e-015 2.38542e-015
rhumerus 60.3943 -3.25864 -73.4089
rradius 77.5605
rwrist -19.7872
rhand -26.8629 55.0788
rfingers 7.12502
rthumb -0.287666 25.0993
lclavicle 7.55382e-015 2.38542e-015
lhumerus 65.9386 -5.26787 64.7461
lradius 84.1778
lwrist 45.4127
lhand 190.343 70.912
lfingers 7.12502
lthumb -144.549 -675.537
rfemur 3.75526 -3.23669 14.6073
rtibia 40.6891
rfoot -21.845 1.3954
rtoes 19.8141
lfemur 1.47919 -3.81112 -3.38316
ltibia 32.9201
lfoot -3.44799 10.1576
ltoes -21.498
